HIERARCHY
ROOT simHips
{
  OFFSET 17.069 88.8131 -8.14083
  CHANNELS 6 Xposition Yposition Zposition Zrotation Xrotation Yrotation
  JOINT simSpine
  {
    OFFSET -0.000355721 21.3001 -0.016921
    CHANNELS 3 Zrotation Xrotation Yrotation
    JOINT simLeftArm
    {
      OFFSET 13.5181 21.3012 0
      CHANNELS 3 Zrotation Xrotation Yrotation
      JOINT simLeftForeArm
      {
        OFFSET 14.4447 2.4172 5.4856
        CHANNELS 3 Zrotation Xrotation Yrotation
        JOINT simLeftHand
        {
          OFFSET 24.5783 0 0
          CHANNELS 3 Zrotation Xrotation Yrotation
          End Site
          {
            OFFSET 7.32568 1.52588e-05 0.0169305
          }
        }
      }
    }
    JOINT simHead
    {
      OFFSET 0 27.4458 -0.00489235
      CHANNELS 3 Zrotation Xrotation Yrotation
      End Site
      {
        OFFSET 0 0 0
      }
    }
    JOINT simRightArm
    {
      OFFSET -13.5174 21.3012 0
      CHANNELS 3 Zrotation Xrotation Yrotation
      JOINT simRightForeArm
      {
        OFFSET -24.5783 0 0
        CHANNELS 3 Zrotation Xrotation Yrotation
        JOINT simRightHand
        {
          OFFSET -24.5783 0 0
          CHANNELS 3 Zrotation Xrotation Yrotation
          End Site
          {
            OFFSET -7.32568 1.52588e-05 0.0169305
          }
        }
      }
    }
  }
  JOINT simRightUpLeg
  {
    OFFSET -8.44614 -9.41038 0.835684
    CHANNELS 3 Zrotation Xrotation Yrotation
    JOINT simRightLeg
    {
      OFFSET 0 -40.9639 0
      CHANNELS 3 Zrotation Xrotation Yrotation
      JOINT simRightFoot
      {
        OFFSET 0 -40.9639 0
        CHANNELS 3 Zrotation Xrotation Yrotation
        End Site
        {
          OFFSET 0.50614 -9.67405 14.6709
        }
      }
    }
  }
  JOINT simLeftUpLeg
  {
    OFFSET 8.44614 -9.41038 0.835684
    CHANNELS 3 Zrotation Xrotation Yrotation
    JOINT simLeftLeg
    {
      OFFSET 0 -40.9639 0
      CHANNELS 3 Zrotation Xrotation Yrotation
      JOINT simLeftFoot
      {
        OFFSET 0 -40.9639 0
        CHANNELS 3 Zrotation Xrotation Yrotation
        End Site
        {
          OFFSET -0.50614 -9.67405 14.6709
        }
      }
    }
  }
}
MOTION
Frames:	9
Frame Time:	0.0333333
17.069 88.8131 -8.14083 2.65729e-10 1.70333e-07 -8.65818e-09 -1.1438e-05 -5.62716e-05 1.87235e-05 -44.2232 -13.9426 -18.4245 12.77 -6.9178 -102.027 -0.375101 3.27575 -0.358038 2.88854e-05 6.81823e-05 -3.19352e-05 44.949 -3.27819 7.40393 -4.54862 -2.59096 105.722 -0.0991287 -0.134927 -0.0600474 -10.2584 -27.3335 -19.5356 0.0212717 60.3955 10.544 -5.28989 -30.9628 5.52711 11.1857 -25.9142 20.6725 -0.0106195 60.3758 -11.3996 5.16 -32.0237 -6.14318 
17.0865 88.8131 -8.15709 2.65801e-10 1.70333e-07 -2.40449e-05 -0.00842397 0.0892084 -0.0187439 -44.5297 -14.0988 -18.4675 12.7608 -6.86506 -102.179 -0.413934 3.27579 -0.208427 0.00373288 0.0938802 -0.247087 45.2684 -2.81364 7.06335 -4.61546 -2.34025 105.928 -0.14228 0.00155997 0.129894 -10.3467 -27.4511 -19.5377 -0.00334139 60.5285 10.559 -5.21738 -30.9719 5.54889 11.153 -25.9495 20.7016 -0.0109273 60.3862 -11.3967 5.22471 -31.9999 -6.14158 
17.1554 88.8131 -8.18075 -0.00288532 1.70333e-07 -0.0328689 0.0117501 0.155477 -0.0295338 -44.8308 -14.1478 -18.4858 12.7059 -6.74093 -102.198 -0.521672 3.27728 -0.262634 -0.0363041 0.316938 -0.402044 45.554 -2.79019 7.19759 -4.55069 -2.28256 105.846 -0.0829032 -0.0386184 0.229637 -10.3453 -27.4548 -19.4994 0.0067602 60.4509 10.5781 -5.19801 -30.8931 5.53415 11.1189 -25.9467 20.731 -0.0126987 60.3856 -11.3734 5.2707 -32.0041 -6.14057 
17.2283 88.8131 -8.2031 -0.0130747 1.70333e-07 -0.100243 0.0750732 0.219849 -0.0359618 -45.1363 -14.2172 -18.5387 12.6864 -6.5534 -102.21 -0.65599 3.30675 -0.185646 -0.12352 0.595765 -0.476859 45.5984 -2.69894 7.36764 -4.36521 -2.17143 105.826 0.122783 -0.0910984 0.123091 -10.4332 -27.5943 -19.5081 0.0286284 60.5511 10.5817 -5.15204 -30.8403 5.59662 11.0996 -25.9902 20.7704 -0.0154377 60.4104 -11.3368 5.31797 -31.9869 -6.11948 
17.3078 88.8131 -8.21802 -0.0304165 1.70333e-07 -0.172761 0.124855 0.333715 -0.0202114 -45.3383 -14.4261 -18.6868 12.6732 -6.45015 -102.21 -0.761911 3.30067 -0.0586398 -0.13756 0.673867 -0.451544 45.5019 -2.39458 7.35386 -4.20413 -2.00785 105.82 0.278311 -0.0706226 -0.0107156 -10.4347 -27.5598 -19.4558 0.0469128 60.4788 10.5993 -5.10912 -30.8027 5.62879 11.0644 -25.9841 20.7834 -0.0157049 60.4188 -11.3028 5.3671 -32.0082 -6.08015 
17.3948 88.8114 -8.17711 -0.0541361 1.70332e-07 -0.253986 0.207715 0.475488 0.0050328 -45.1465 -15.0592 -18.6077 12.7017 -6.34187 -102.055 -0.822993 3.30994 -0.0382427 -0.140941 0.616803 -0.476544 44.8704 -2.50767 7.24659 -4.07546 -1.92408 105.661 0.492301 -0.101015 -0.134699 -10.4275 -27.5277 -19.3107 0.0525417 60.4869 10.5773 -5.00053 -30.8582 5.64406 10.9442 -25.8745 20.6496 -0.0455678 60.3773 -11.1918 5.40147 -32.1116 -5.98843 
17.4913 88.8087 -8.05954 -0.0682842 -0.000118233 -0.352891 0.268648 0.559773 0.0267444 -44.444 -16.2452 -18.3159 12.7115 -6.27708 -101.685 -0.824219 3.29367 -0.00576913 -0.148967 0.642685 -0.47942 43.6095 -3.31542 7.23513 -4.01399 -1.88681 105.411 0.614639 -0.146281 -0.133278 -10.3285 -27.4774 -19.0108 0.0890485 60.4384 10.4604 -4.88327 -30.9068 5.62508 10.7199 -25.8181 20.3594 -0.024143 60.3379 -11.0017 5.36911 -32.2101 -5.82537 
17.5961 88.8059 -7.86854 -0.0782176 0.0184244 -0.469101 0.267508 0.561485 0.0470108 -43.2788 -18.1865 -18.1033 12.7812 -6.20676 -101.121 -0.776471 3.25709 -0.0167924 -0.0743508 0.839803 -0.427496 41.8732 -4.69212 7.20137 -4.09579 -1.83763 105.061 0.495953 -0.0927992 -0.114608 -10.1767 -27.4122 -18.5547 0.115287 60.4276 10.2805 -4.70346 -31.0552 5.55994 10.4706 -25.8119 19.9525 0.00768521 60.4374 -10.7579 5.29281 -32.4349 -5.62004 
17.7042 88.8031 -7.61326 -0.097565 0.06255 -0.54471 0.255005 0.505751 0.0646344 -41.6938 -20.6471 -17.8657 12.8936 -6.05327 -100.392 -0.735546 3.24078 -0.177194 0.0431002 1.03382 -0.450105 39.6595 -6.31432 6.92782 -4.26185 -1.87508 104.408 0.346721 -0.0486937 -0.0107421 -9.98098 -27.389 -17.9869 0.128104 60.4416 10.0396 -4.45941 -31.2337 5.43881 10.0289 -25.503 19.309 0.0363909 60.2239 -10.4542 5.1796 -32.7252 -5.38268 
